# xmcd
#
# Track frame offsets:
#	150
#	22499
#	43624
#	52677
#	65034
#	84588
#	104573
#	111648
#	141141
#	154342
#	178099
#	193264
#	203302
#	217839
#	225911
#	252041
#
# Disc length: 4339
#
# Revision: 3
# Processed by: cddbd v1.5.1PL0 Copyright (c) Steve Scherf et al.
# Submitted via: tcd 2.0b
# Normalized: r2:TDELIM( - )
#
DISCID=e210f110
DTITLE=Disk 2 - Mike's Compilation
DYEAR=1900
DGENRE=
TTITLE0=The state I am in - Belle and Sebastian
TTITLE1=Barney and Me - The Boo Radleys
TTITLE2=What you do to me - Teenage Fanclub
TTITLE3=Into your arms - The lemonheads
TTITLE4=Vapour trail - Ride
TTITLE5=Butterfly - Talvin Singh
TTITLE6=Superglider - Drugstore
TTITLE7=CODY - Mogwai
TTITLE8=Run - Spiritualized
TTITLE9=Pearl - Chpaterhouse
TTITLE10=Today - Smashing Pumpkins
TTITLE11=Sawn off Metallica T-Shirt - Six by Seven
TTITLE12=Real Great Britiain - Asian Dub Foundation
TTITLE13=Visions of La - Slowdive
TTITLE14=Love songs on the radio - Mojave 3
TTITLE15=Mogwai Fear Satan - Mogwai
EXTD=
EXTT0=
EXTT1=
EXTT2=
EXTT3=
EXTT4=
EXTT5=
EXTT6=
EXTT7=
EXTT8=
EXTT9=
EXTT10=
EXTT11=
EXTT12=
EXTT13=
EXTT14=
EXTT15=
PLAYORDER=
